<svg width="73" height="87" viewBox="0 0 73 87" fill="none" xmlns="http://www.w3.org/2000/svg">
<path d="M1.91913e-07 4.83463V82.167C-0.000242118 83.0269 0.228975 83.8714 0.664002 84.6133C1.09903 85.3551 1.72411 85.9674 2.47475 86.3871C3.2254 86.8067 4.07441 87.0185 4.93421 87.0005C5.79401 86.9826 6.63344 86.7355 7.3659 86.2849L70.1984 47.6187C70.9021 47.1863 71.4833 46.5808 71.8865 45.8599C72.2896 45.139 72.5013 44.3268 72.5013 43.5008C72.5013 42.6748 72.2896 41.8626 71.8865 41.1417C71.4833 40.4208 70.9021 39.8153 70.1984 39.3829L7.3659 0.716686C6.63344 0.266055 5.79401 0.0190147 4.93421 0.00105441C4.07441 -0.0169059 3.2254 0.194864 2.47475 0.614515C1.72411 1.03417 1.09903 1.6465 0.664002 2.38834C0.228975 3.13017 -0.000242118 3.97465 1.91913e-07 4.83463Z" fill="black"/>
</svg>
